<svg xmlns="http://www.w3.org/2000/svg" version="1.1" xmlns:xlink="http://www.w3.org/1999/xlink" xmlns:svgjs="http://svgjs.com/svgjs" width="1440" height="560" preserveAspectRatio="none" viewBox="0 0 1440 560"><g mask="url(&quot;#SvgjsMask1005&quot;)" fill="none"><rect width="1440" height="560" x="0" y="0" fill="url(#SvgjsLinearGradient1006)"></rect><g mask="url(&quot;#SvgjsMask1007&quot;)"><path d="M449.5 420.5L536.5 333.5L536.5 14.5" stroke-width="4.83" stroke="rgba(58, 124, 195, 0.33)"></path><path d="M442.25 420.5 a7.25 7.25 0 1 0 14.5 0 a7.25 7.25 0 1 0 -14.5 0zM529.25 14.5 a7.25 7.25 0 1 0 14.5 0 a7.25 7.25 0 1 0 -14.5 0z" fill="rgba(58, 124, 195, 0.33)"></path><path d="M623.5 188.5L942.5 507.5L971.5 507.5L1174.5 304.5" stroke-width="4.83" stroke="rgba(58, 124, 195, 0.33)"></path><path d="M616.25 188.5 a7.25 7.25 0 1 0 14.5 0 a7.25 7.25 0 1 0 -14.5 0zM1167.25 304.5 a7.25 7.25 0 1 0 14.5 0 a7.25 7.25 0 1 0 -14.5 0z" fill="rgba(58, 124, 195, 0.33)"></path><path d="M1290.5 217.5L1435.5 362.5L1435.5 565.5" stroke-width="4.83" stroke="rgba(58, 124, 195, 0.33)"></path><path d="M1283.25 217.5 a7.25 7.25 0 1 0 14.5 0 a7.25 7.25 0 1 0 -14.5 0zM1428.25 565.5 a7.25 7.25 0 1 0 14.5 0 a7.25 7.25 0 1 0 -14.5 0z" fill="rgba(58, 124, 195, 0.33)"></path><path d="M304.5 188.5L507.5 188.5" stroke-width="4.83" stroke="rgba(58, 124, 195, 0.33)"></path><path d="M297.25 188.5 a7.25 7.25 0 1 0 14.5 0 a7.25 7.25 0 1 0 -14.5 0zM500.25 188.5 a7.25 7.25 0 1 0 14.5 0 a7.25 7.25 0 1 0 -14.5 0z" fill="rgba(58, 124, 195, 0.33)"></path><path d="M710.5 362.5L913.5 565.5L1261.5 565.5" stroke-width="4.83" stroke="rgba(58, 124, 195, 0.33)"></path><path d="M703.25 362.5 a7.25 7.25 0 1 0 14.5 0 a7.25 7.25 0 1 0 -14.5 0zM1254.25 565.5 a7.25 7.25 0 1 0 14.5 0 a7.25 7.25 0 1 0 -14.5 0z" fill="rgba(58, 124, 195, 0.33)"></path><path d="M536.5 391.5L507.5 391.5L333.5 565.5L14.5 565.5" stroke-width="4.83" stroke="rgba(58, 124, 195, 0.33)"></path><path d="M529.25 391.5 a7.25 7.25 0 1 0 14.5 0 a7.25 7.25 0 1 0 -14.5 0zM7.25 565.5 a7.25 7.25 0 1 0 14.5 0 a7.25 7.25 0 1 0 -14.5 0z" fill="rgba(58, 124, 195, 0.33)"></path><path d="M971.5 275.5L971.5 217.5L768.5 14.5L739.5 14.5" stroke-width="4.83" stroke="rgba(58, 124, 195, 0.33)"></path><path d="M964.25 275.5 a7.25 7.25 0 1 0 14.5 0 a7.25 7.25 0 1 0 -14.5 0zM732.25 14.5 a7.25 7.25 0 1 0 14.5 0 a7.25 7.25 0 1 0 -14.5 0z" fill="rgba(58, 124, 195, 0.33)"></path><path d="M304.5 275.5L304.5 217.5L217.5 130.5L217.5 72.5L159.5 14.5L14.5 14.5" stroke-width="4.83" stroke="rgba(58, 124, 195, 0.33)"></path><path d="M297.25 275.5 a7.25 7.25 0 1 0 14.5 0 a7.25 7.25 0 1 0 -14.5 0zM7.25 14.5 a7.25 7.25 0 1 0 14.5 0 a7.25 7.25 0 1 0 -14.5 0z" fill="rgba(58, 124, 195, 0.33)"></path><path d="M768.5 159.5L884.5 159.5L942.5 217.5L942.5 478.5" stroke-width="4.83" stroke="rgba(58, 124, 195, 0.33)"></path><path d="M761.25 159.5 a7.25 7.25 0 1 0 14.5 0 a7.25 7.25 0 1 0 -14.5 0zM935.25 478.5 a7.25 7.25 0 1 0 14.5 0 a7.25 7.25 0 1 0 -14.5 0z" fill="rgba(58, 124, 195, 0.33)"></path><path d="M333.5 246.5L362.5 217.5L391.5 217.5L507.5 333.5" stroke-width="4.83" stroke="rgba(58, 124, 195, 0.33)"></path><path d="M326.25 246.5 a7.25 7.25 0 1 0 14.5 0 a7.25 7.25 0 1 0 -14.5 0zM500.25 333.5 a7.25 7.25 0 1 0 14.5 0 a7.25 7.25 0 1 0 -14.5 0z" fill="rgba(58, 124, 195, 0.33)"></path><path d="M1203.5 536.5L913.5 536.5L826.5 449.5L826.5 420.5L681.5 275.5" stroke-width="4.83" stroke="rgba(58, 124, 195, 0.33)"></path><path d="M1196.25 536.5 a7.25 7.25 0 1 0 14.5 0 a7.25 7.25 0 1 0 -14.5 0zM674.25 275.5 a7.25 7.25 0 1 0 14.5 0 a7.25 7.25 0 1 0 -14.5 0z" fill="rgba(58, 124, 195, 0.33)"></path><path d="M1087.5 188.5L1087.5 14.5" stroke-width="4.83" stroke="rgba(58, 124, 195, 0.33)"></path><path d="M1080.25 188.5 a7.25 7.25 0 1 0 14.5 0 a7.25 7.25 0 1 0 -14.5 0zM1080.25 14.5 a7.25 7.25 0 1 0 14.5 0 a7.25 7.25 0 1 0 -14.5 0z" fill="rgba(58, 124, 195, 0.33)"></path><path d="M1435.5 159.5L1377.5 101.5L1174.5 101.5L1145.5 130.5L1145.5 304.5L1058.5 391.5" stroke-width="4.83" stroke="rgba(58, 124, 195, 0.33)"></path><path d="M1428.25 159.5 a7.25 7.25 0 1 0 14.5 0 a7.25 7.25 0 1 0 -14.5 0zM1051.25 391.5 a7.25 7.25 0 1 0 14.5 0 a7.25 7.25 0 1 0 -14.5 0z" fill="rgba(58, 124, 195, 0.33)"></path><path d="M797.5 101.5L826.5 130.5L855.5 130.5" stroke-width="4.83" stroke="rgba(58, 124, 195, 0.33)"></path><path d="M790.25 101.5 a7.25 7.25 0 1 0 14.5 0 a7.25 7.25 0 1 0 -14.5 0zM848.25 130.5 a7.25 7.25 0 1 0 14.5 0 a7.25 7.25 0 1 0 -14.5 0z" fill="rgba(58, 124, 195, 0.33)"></path><path d="M681.5 536.5L565.5 536.5L536.5 565.5L507.5 565.5L449.5 507.5L449.5 478.5L507.5 420.5L739.5 420.5" stroke-width="4.83" stroke="rgba(58, 124, 195, 0.33)"></path><path d="M674.25 536.5 a7.25 7.25 0 1 0 14.5 0 a7.25 7.25 0 1 0 -14.5 0zM732.25 420.5 a7.25 7.25 0 1 0 14.5 0 a7.25 7.25 0 1 0 -14.5 0z" fill="rgba(58, 124, 195, 0.33)"></path><path d="M1319.5 14.5L1435.5 130.5" stroke-width="4.83" stroke="rgba(58, 124, 195, 0.33)"></path><path d="M1312.25 14.5 a7.25 7.25 0 1 0 14.5 0 a7.25 7.25 0 1 0 -14.5 0zM1428.25 130.5 a7.25 7.25 0 1 0 14.5 0 a7.25 7.25 0 1 0 -14.5 0z" fill="rgba(58, 124, 195, 0.33)"></path><path d="M304.5 333.5L304.5 536.5" stroke-width="4.83" stroke="rgba(58, 124, 195, 0.33)"></path><path d="M297.25 333.5 a7.25 7.25 0 1 0 14.5 0 a7.25 7.25 0 1 0 -14.5 0zM297.25 536.5 a7.25 7.25 0 1 0 14.5 0 a7.25 7.25 0 1 0 -14.5 0z" fill="rgba(58, 124, 195, 0.33)"></path><path d="M1290.5 275.5L1290.5 565.5" stroke-width="4.83" stroke="rgba(58, 124, 195, 0.33)"></path><path d="M1283.25 275.5 a7.25 7.25 0 1 0 14.5 0 a7.25 7.25 0 1 0 -14.5 0zM1283.25 565.5 a7.25 7.25 0 1 0 14.5 0 a7.25 7.25 0 1 0 -14.5 0z" fill="rgba(58, 124, 195, 0.33)"></path><path d="M1029.5 246.5L1029.5 420.5L971.5 478.5" stroke-width="4.83" stroke="rgba(58, 124, 195, 0.33)"></path><path d="M1022.25 246.5 a7.25 7.25 0 1 0 14.5 0 a7.25 7.25 0 1 0 -14.5 0zM964.25 478.5 a7.25 7.25 0 1 0 14.5 0 a7.25 7.25 0 1 0 -14.5 0z" fill="rgba(58, 124, 195, 0.33)"></path><path d="M43.5 420.5L217.5 246.5L275.5 246.5" stroke-width="4.83" stroke="rgba(58, 124, 195, 0.33)"></path><path d="M36.25 420.5 a7.25 7.25 0 1 0 14.5 0 a7.25 7.25 0 1 0 -14.5 0zM268.25 246.5 a7.25 7.25 0 1 0 14.5 0 a7.25 7.25 0 1 0 -14.5 0z" fill="rgba(58, 124, 195, 0.33)"></path><path d="M623.5 449.5L536.5 536.5L507.5 536.5L478.5 507.5L478.5 478.5L507.5 449.5L594.5 449.5" stroke-width="4.83" stroke="rgba(58, 124, 195, 0.33)"></path><path d="M616.25 449.5 a7.25 7.25 0 1 0 14.5 0 a7.25 7.25 0 1 0 -14.5 0zM587.25 449.5 a7.25 7.25 0 1 0 14.5 0 a7.25 7.25 0 1 0 -14.5 0z" fill="rgba(58, 124, 195, 0.33)"></path><path d="M1203.5 333.5L1261.5 391.5L1261.5 536.5" stroke-width="4.83" stroke="rgba(58, 124, 195, 0.33)"></path><path d="M1196.25 333.5 a7.25 7.25 0 1 0 14.5 0 a7.25 7.25 0 1 0 -14.5 0zM1254.25 536.5 a7.25 7.25 0 1 0 14.5 0 a7.25 7.25 0 1 0 -14.5 0z" fill="rgba(58, 124, 195, 0.33)"></path><path d="M855.5 188.5L652.5 188.5L565.5 101.5L565.5 14.5" stroke-width="4.83" stroke="rgba(58, 124, 195, 0.33)"></path><path d="M848.25 188.5 a7.25 7.25 0 1 0 14.5 0 a7.25 7.25 0 1 0 -14.5 0zM558.25 14.5 a7.25 7.25 0 1 0 14.5 0 a7.25 7.25 0 1 0 -14.5 0z" fill="rgba(58, 124, 195, 0.33)"></path><path d="M1319.5 449.5L1319.5 275.5" stroke-width="4.83" stroke="rgba(58, 124, 195, 0.33)"></path><path d="M1312.25 449.5 a7.25 7.25 0 1 0 14.5 0 a7.25 7.25 0 1 0 -14.5 0zM1312.25 275.5 a7.25 7.25 0 1 0 14.5 0 a7.25 7.25 0 1 0 -14.5 0z" fill="rgba(58, 124, 195, 0.33)"></path><path d="M391.5 391.5L391.5 420.5L362.5 449.5L333.5 449.5" stroke-width="4.83" stroke="rgba(58, 124, 195, 0.33)"></path><path d="M384.25 391.5 a7.25 7.25 0 1 0 14.5 0 a7.25 7.25 0 1 0 -14.5 0zM326.25 449.5 a7.25 7.25 0 1 0 14.5 0 a7.25 7.25 0 1 0 -14.5 0z" fill="rgba(58, 124, 195, 0.33)"></path><path d="M710.5 217.5L855.5 362.5L913.5 362.5" stroke-width="4.83" stroke="rgba(58, 124, 195, 0.33)"></path><path d="M703.25 217.5 a7.25 7.25 0 1 0 14.5 0 a7.25 7.25 0 1 0 -14.5 0zM906.25 362.5 a7.25 7.25 0 1 0 14.5 0 a7.25 7.25 0 1 0 -14.5 0z" fill="rgba(58, 124, 195, 0.33)"></path><path d="M1261.5 362.5L1174.5 275.5L1174.5 130.5" stroke-width="4.83" stroke="rgba(58, 124, 195, 0.33)"></path><path d="M1254.25 362.5 a7.25 7.25 0 1 0 14.5 0 a7.25 7.25 0 1 0 -14.5 0zM1167.25 130.5 a7.25 7.25 0 1 0 14.5 0 a7.25 7.25 0 1 0 -14.5 0z" fill="rgba(58, 124, 195, 0.33)"></path><path d="M101.5 304.5L130.5 304.5L188.5 246.5L188.5 72.5L159.5 43.5L101.5 43.5L14.5 130.5L14.5 246.5" stroke-width="4.83" stroke="rgba(58, 124, 195, 0.33)"></path><path d="M94.25 304.5 a7.25 7.25 0 1 0 14.5 0 a7.25 7.25 0 1 0 -14.5 0zM7.25 246.5 a7.25 7.25 0 1 0 14.5 0 a7.25 7.25 0 1 0 -14.5 0z" fill="rgba(58, 124, 195, 0.33)"></path><path d="M130.5 507.5L159.5 536.5L275.5 536.5" stroke-width="4.83" stroke="rgba(58, 124, 195, 0.33)"></path><path d="M123.25 507.5 a7.25 7.25 0 1 0 14.5 0 a7.25 7.25 0 1 0 -14.5 0zM268.25 536.5 a7.25 7.25 0 1 0 14.5 0 a7.25 7.25 0 1 0 -14.5 0z" fill="rgba(58, 124, 195, 0.33)"></path><path d="M391.5 333.5L333.5 275.5" stroke-width="4.83" stroke="rgba(58, 124, 195, 0.33)"></path><path d="M384.25 333.5 a7.25 7.25 0 1 0 14.5 0 a7.25 7.25 0 1 0 -14.5 0zM326.25 275.5 a7.25 7.25 0 1 0 14.5 0 a7.25 7.25 0 1 0 -14.5 0z" fill="rgba(58, 124, 195, 0.33)"></path><path d="M391.5 159.5L449.5 159.5L507.5 101.5L507.5 14.5" stroke-width="4.83" stroke="rgba(58, 124, 195, 0.33)"></path><path d="M384.25 159.5 a7.25 7.25 0 1 0 14.5 0 a7.25 7.25 0 1 0 -14.5 0zM500.25 14.5 a7.25 7.25 0 1 0 14.5 0 a7.25 7.25 0 1 0 -14.5 0z" fill="rgba(58, 124, 195, 0.33)"></path><path d="M1058.5 275.5L1116.5 275.5" stroke-width="4.83" stroke="rgba(58, 124, 195, 0.33)"></path><path d="M1051.25 275.5 a7.25 7.25 0 1 0 14.5 0 a7.25 7.25 0 1 0 -14.5 0zM1109.25 275.5 a7.25 7.25 0 1 0 14.5 0 a7.25 7.25 0 1 0 -14.5 0z" fill="rgba(58, 124, 195, 0.33)"></path><path d="M43.5 478.5L101.5 536.5L130.5 536.5" stroke-width="4.83" stroke="rgba(58, 124, 195, 0.33)"></path><path d="M36.25 478.5 a7.25 7.25 0 1 0 14.5 0 a7.25 7.25 0 1 0 -14.5 0zM123.25 536.5 a7.25 7.25 0 1 0 14.5 0 a7.25 7.25 0 1 0 -14.5 0z" fill="rgba(58, 124, 195, 0.33)"></path><path d="M1000.5 159.5L1058.5 217.5L1058.5 246.5" stroke-width="4.83" stroke="rgba(58, 124, 195, 0.33)"></path><path d="M993.25 159.5 a7.25 7.25 0 1 0 14.5 0 a7.25 7.25 0 1 0 -14.5 0zM1051.25 246.5 a7.25 7.25 0 1 0 14.5 0 a7.25 7.25 0 1 0 -14.5 0z" fill="rgba(58, 124, 195, 0.33)"></path><path d="M275.5 304.5L246.5 333.5L246.5 507.5" stroke-width="4.83" stroke="rgba(58, 124, 195, 0.33)"></path><path d="M268.25 304.5 a7.25 7.25 0 1 0 14.5 0 a7.25 7.25 0 1 0 -14.5 0zM239.25 507.5 a7.25 7.25 0 1 0 14.5 0 a7.25 7.25 0 1 0 -14.5 0z" fill="rgba(58, 124, 195, 0.33)"></path><path d="M652.5 507.5L652.5 449.5" stroke-width="4.83" stroke="rgba(58, 124, 195, 0.33)"></path><path d="M645.25 507.5 a7.25 7.25 0 1 0 14.5 0 a7.25 7.25 0 1 0 -14.5 0zM645.25 449.5 a7.25 7.25 0 1 0 14.5 0 a7.25 7.25 0 1 0 -14.5 0z" fill="rgba(58, 124, 195, 0.33)"></path><path d="M217.5 14.5L217.5 43.5L275.5 101.5L275.5 159.5" stroke-width="4.83" stroke="rgba(58, 124, 195, 0.33)"></path><path d="M210.25 14.5 a7.25 7.25 0 1 0 14.5 0 a7.25 7.25 0 1 0 -14.5 0zM268.25 159.5 a7.25 7.25 0 1 0 14.5 0 a7.25 7.25 0 1 0 -14.5 0z" fill="rgba(58, 124, 195, 0.33)"></path><path d="M1435.5 217.5L1319.5 217.5L1261.5 159.5L1261.5 130.5" stroke-width="4.83" stroke="rgba(58, 124, 195, 0.33)"></path><path d="M1428.25 217.5 a7.25 7.25 0 1 0 14.5 0 a7.25 7.25 0 1 0 -14.5 0zM1254.25 130.5 a7.25 7.25 0 1 0 14.5 0 a7.25 7.25 0 1 0 -14.5 0z" fill="rgba(58, 124, 195, 0.33)"></path><path d="M1000.5 275.5L1000.5 188.5L855.5 43.5L855.5 14.5" stroke-width="4.83" stroke="rgba(58, 124, 195, 0.33)"></path><path d="M993.25 275.5 a7.25 7.25 0 1 0 14.5 0 a7.25 7.25 0 1 0 -14.5 0zM848.25 14.5 a7.25 7.25 0 1 0 14.5 0 a7.25 7.25 0 1 0 -14.5 0z" fill="rgba(58, 124, 195, 0.33)"></path><path d="M971.5 101.5L1058.5 188.5" stroke-width="4.83" stroke="rgba(58, 124, 195, 0.33)"></path><path d="M964.25 101.5 a7.25 7.25 0 1 0 14.5 0 a7.25 7.25 0 1 0 -14.5 0zM1051.25 188.5 a7.25 7.25 0 1 0 14.5 0 a7.25 7.25 0 1 0 -14.5 0z" fill="rgba(58, 124, 195, 0.33)"></path><path d="M420.5 391.5L449.5 391.5L478.5 362.5L478.5 333.5L391.5 246.5L362.5 246.5" stroke-width="4.83" stroke="rgba(58, 124, 195, 0.33)"></path><path d="M413.25 391.5 a7.25 7.25 0 1 0 14.5 0 a7.25 7.25 0 1 0 -14.5 0zM355.25 246.5 a7.25 7.25 0 1 0 14.5 0 a7.25 7.25 0 1 0 -14.5 0z" fill="rgba(58, 124, 195, 0.33)"></path><path d="M391.5 362.5L449.5 362.5" stroke-width="4.83" stroke="rgba(58, 124, 195, 0.33)"></path><path d="M384.25 362.5 a7.25 7.25 0 1 0 14.5 0 a7.25 7.25 0 1 0 -14.5 0zM442.25 362.5 a7.25 7.25 0 1 0 14.5 0 a7.25 7.25 0 1 0 -14.5 0z" fill="rgba(58, 124, 195, 0.33)"></path><path d="M652.5 565.5L681.5 565.5L739.5 507.5L826.5 507.5L884.5 565.5" stroke-width="4.83" stroke="rgba(58, 124, 195, 0.33)"></path><path d="M645.25 565.5 a7.25 7.25 0 1 0 14.5 0 a7.25 7.25 0 1 0 -14.5 0zM877.25 565.5 a7.25 7.25 0 1 0 14.5 0 a7.25 7.25 0 1 0 -14.5 0z" fill="rgba(58, 124, 195, 0.33)"></path><path d="M14.5 304.5L72.5 362.5" stroke-width="4.83" stroke="rgba(58, 124, 195, 0.33)"></path><path d="M7.25 304.5 a7.25 7.25 0 1 0 14.5 0 a7.25 7.25 0 1 0 -14.5 0zM65.25 362.5 a7.25 7.25 0 1 0 14.5 0 a7.25 7.25 0 1 0 -14.5 0z" fill="rgba(58, 124, 195, 0.33)"></path><path d="M1377.5 420.5L1319.5 478.5L1319.5 565.5" stroke-width="4.83" stroke="rgba(58, 124, 195, 0.33)"></path><path d="M1370.25 420.5 a7.25 7.25 0 1 0 14.5 0 a7.25 7.25 0 1 0 -14.5 0zM1312.25 565.5 a7.25 7.25 0 1 0 14.5 0 a7.25 7.25 0 1 0 -14.5 0z" fill="rgba(58, 124, 195, 0.33)"></path><path d="M101.5 449.5L275.5 275.5" stroke-width="4.83" stroke="rgba(58, 124, 195, 0.33)"></path><path d="M94.25 449.5 a7.25 7.25 0 1 0 14.5 0 a7.25 7.25 0 1 0 -14.5 0zM268.25 275.5 a7.25 7.25 0 1 0 14.5 0 a7.25 7.25 0 1 0 -14.5 0z" fill="rgba(58, 124, 195, 0.33)"></path><path d="M1029.5 43.5L1000.5 43.5L942.5 101.5" stroke-width="4.83" stroke="rgba(58, 124, 195, 0.33)"></path><path d="M1022.25 43.5 a7.25 7.25 0 1 0 14.5 0 a7.25 7.25 0 1 0 -14.5 0zM935.25 101.5 a7.25 7.25 0 1 0 14.5 0 a7.25 7.25 0 1 0 -14.5 0z" fill="rgba(58, 124, 195, 0.33)"></path><path d="M710.5 101.5L710.5 72.5L739.5 43.5L768.5 43.5L797.5 72.5" stroke-width="4.83" stroke="rgba(58, 124, 195, 0.33)"></path><path d="M703.25 101.5 a7.25 7.25 0 1 0 14.5 0 a7.25 7.25 0 1 0 -14.5 0zM790.25 72.5 a7.25 7.25 0 1 0 14.5 0 a7.25 7.25 0 1 0 -14.5 0z" fill="rgba(58, 124, 195, 0.33)"></path><path d="M913.5 72.5L884.5 43.5L884.5 14.5" stroke-width="4.83" stroke="rgba(58, 124, 195, 0.33)"></path><path d="M906.25 72.5 a7.25 7.25 0 1 0 14.5 0 a7.25 7.25 0 1 0 -14.5 0zM877.25 14.5 a7.25 7.25 0 1 0 14.5 0 a7.25 7.25 0 1 0 -14.5 0z" fill="rgba(58, 124, 195, 0.33)"></path><path d="M1174.5 478.5L1232.5 478.5" stroke-width="4.83" stroke="rgba(58, 124, 195, 0.33)"></path><path d="M1167.25 478.5 a7.25 7.25 0 1 0 14.5 0 a7.25 7.25 0 1 0 -14.5 0zM1225.25 478.5 a7.25 7.25 0 1 0 14.5 0 a7.25 7.25 0 1 0 -14.5 0z" fill="rgba(58, 124, 195, 0.33)"></path><path d="M1116.5 159.5L1116.5 246.5" stroke-width="4.83" stroke="rgba(58, 124, 195, 0.33)"></path><path d="M1109.25 159.5 a7.25 7.25 0 1 0 14.5 0 a7.25 7.25 0 1 0 -14.5 0zM1109.25 246.5 a7.25 7.25 0 1 0 14.5 0 a7.25 7.25 0 1 0 -14.5 0z" fill="rgba(58, 124, 195, 0.33)"></path><path d="M681.5 304.5L565.5 188.5L565.5 130.5" stroke-width="4.83" stroke="rgba(58, 124, 195, 0.33)"></path><path d="M674.25 304.5 a7.25 7.25 0 1 0 14.5 0 a7.25 7.25 0 1 0 -14.5 0zM558.25 130.5 a7.25 7.25 0 1 0 14.5 0 a7.25 7.25 0 1 0 -14.5 0z" fill="rgba(58, 124, 195, 0.33)"></path><path d="M420.5 217.5L507.5 217.5" stroke-width="4.83" stroke="rgba(58, 124, 195, 0.33)"></path><path d="M413.25 217.5 a7.25 7.25 0 1 0 14.5 0 a7.25 7.25 0 1 0 -14.5 0zM500.25 217.5 a7.25 7.25 0 1 0 14.5 0 a7.25 7.25 0 1 0 -14.5 0z" fill="rgba(58, 124, 195, 0.33)"></path><path d="M1406.5 304.5L1406.5 275.5L1377.5 246.5L1348.5 246.5" stroke-width="4.83" stroke="rgba(58, 124, 195, 0.33)"></path><path d="M1399.25 304.5 a7.25 7.25 0 1 0 14.5 0 a7.25 7.25 0 1 0 -14.5 0zM1341.25 246.5 a7.25 7.25 0 1 0 14.5 0 a7.25 7.25 0 1 0 -14.5 0z" fill="rgba(58, 124, 195, 0.33)"></path><path d="M797.5 246.5L855.5 246.5L913.5 304.5" stroke-width="4.83" stroke="rgba(58, 124, 195, 0.33)"></path><path d="M790.25 246.5 a7.25 7.25 0 1 0 14.5 0 a7.25 7.25 0 1 0 -14.5 0zM906.25 304.5 a7.25 7.25 0 1 0 14.5 0 a7.25 7.25 0 1 0 -14.5 0z" fill="rgba(58, 124, 195, 0.33)"></path><path d="M72.5 217.5L159.5 130.5L159.5 72.5" stroke-width="4.83" stroke="rgba(58, 124, 195, 0.33)"></path><path d="M65.25 217.5 a7.25 7.25 0 1 0 14.5 0 a7.25 7.25 0 1 0 -14.5 0zM152.25 72.5 a7.25 7.25 0 1 0 14.5 0 a7.25 7.25 0 1 0 -14.5 0z" fill="rgba(58, 124, 195, 0.33)"></path><path d="M1145.5 478.5L1087.5 420.5" stroke-width="4.83" stroke="rgba(58, 124, 195, 0.33)"></path><path d="M1138.25 478.5 a7.25 7.25 0 1 0 14.5 0 a7.25 7.25 0 1 0 -14.5 0zM1080.25 420.5 a7.25 7.25 0 1 0 14.5 0 a7.25 7.25 0 1 0 -14.5 0z" fill="rgba(58, 124, 195, 0.33)"></path><path d="M333.5 130.5L246.5 43.5L246.5 14.5" stroke-width="4.83" stroke="rgba(58, 124, 195, 0.33)"></path><path d="M326.25 130.5 a7.25 7.25 0 1 0 14.5 0 a7.25 7.25 0 1 0 -14.5 0zM239.25 14.5 a7.25 7.25 0 1 0 14.5 0 a7.25 7.25 0 1 0 -14.5 0z" fill="rgba(58, 124, 195, 0.33)"></path><path d="M594.5 333.5L623.5 304.5L623.5 275.5L565.5 217.5" stroke-width="4.83" stroke="rgba(58, 124, 195, 0.33)"></path><path d="M587.25 333.5 a7.25 7.25 0 1 0 14.5 0 a7.25 7.25 0 1 0 -14.5 0zM558.25 217.5 a7.25 7.25 0 1 0 14.5 0 a7.25 7.25 0 1 0 -14.5 0z" fill="rgba(58, 124, 195, 0.33)"></path><path d="M739.5 449.5L681.5 507.5" stroke-width="4.83" stroke="rgba(58, 124, 195, 0.33)"></path><path d="M732.25 449.5 a7.25 7.25 0 1 0 14.5 0 a7.25 7.25 0 1 0 -14.5 0zM674.25 507.5 a7.25 7.25 0 1 0 14.5 0 a7.25 7.25 0 1 0 -14.5 0z" fill="rgba(58, 124, 195, 0.33)"></path><path d="M1348.5 14.5L1377.5 14.5L1435.5 72.5L1435.5 101.5" stroke-width="4.83" stroke="rgba(58, 124, 195, 0.33)"></path><path d="M1341.25 14.5 a7.25 7.25 0 1 0 14.5 0 a7.25 7.25 0 1 0 -14.5 0zM1428.25 101.5 a7.25 7.25 0 1 0 14.5 0 a7.25 7.25 0 1 0 -14.5 0z" fill="rgba(58, 124, 195, 0.33)"></path><path d="M72.5 536.5L14.5 536.5" stroke-width="4.83" stroke="rgba(58, 124, 195, 0.33)"></path><path d="M65.25 536.5 a7.25 7.25 0 1 0 14.5 0 a7.25 7.25 0 1 0 -14.5 0zM7.25 536.5 a7.25 7.25 0 1 0 14.5 0 a7.25 7.25 0 1 0 -14.5 0z" fill="rgba(58, 124, 195, 0.33)"></path><path d="M1174.5 14.5L1232.5 72.5L1261.5 72.5L1290.5 43.5L1290.5 14.5" stroke-width="4.83" stroke="rgba(58, 124, 195, 0.33)"></path><path d="M1167.25 14.5 a7.25 7.25 0 1 0 14.5 0 a7.25 7.25 0 1 0 -14.5 0zM1283.25 14.5 a7.25 7.25 0 1 0 14.5 0 a7.25 7.25 0 1 0 -14.5 0z" fill="rgba(58, 124, 195, 0.33)"></path><path d="M304.5 43.5L333.5 43.5L420.5 130.5L449.5 130.5" stroke-width="4.83" stroke="rgba(58, 124, 195, 0.33)"></path><path d="M297.25 43.5 a7.25 7.25 0 1 0 14.5 0 a7.25 7.25 0 1 0 -14.5 0zM442.25 130.5 a7.25 7.25 0 1 0 14.5 0 a7.25 7.25 0 1 0 -14.5 0z" fill="rgba(58, 124, 195, 0.33)"></path><path d="M420.5 72.5L420.5 14.5" stroke-width="4.83" stroke="rgba(58, 124, 195, 0.33)"></path><path d="M413.25 72.5 a7.25 7.25 0 1 0 14.5 0 a7.25 7.25 0 1 0 -14.5 0zM413.25 14.5 a7.25 7.25 0 1 0 14.5 0 a7.25 7.25 0 1 0 -14.5 0z" fill="rgba(58, 124, 195, 0.33)"></path><path d="M739.5 101.5L739.5 159.5" stroke-width="4.83" stroke="rgba(58, 124, 195, 0.33)"></path><path d="M732.25 101.5 a7.25 7.25 0 1 0 14.5 0 a7.25 7.25 0 1 0 -14.5 0zM732.25 159.5 a7.25 7.25 0 1 0 14.5 0 a7.25 7.25 0 1 0 -14.5 0z" fill="rgba(58, 124, 195, 0.33)"></path><path d="M1174.5 420.5L1145.5 391.5L1145.5 362.5L1174.5 333.5" stroke-width="4.83" stroke="rgba(58, 124, 195, 0.33)"></path><path d="M1167.25 420.5 a7.25 7.25 0 1 0 14.5 0 a7.25 7.25 0 1 0 -14.5 0zM1167.25 333.5 a7.25 7.25 0 1 0 14.5 0 a7.25 7.25 0 1 0 -14.5 0z" fill="rgba(58, 124, 195, 0.33)"></path><path d="M275.5 14.5L362.5 14.5L391.5 43.5L391.5 72.5" stroke-width="4.83" stroke="rgba(58, 124, 195, 0.33)"></path><path d="M268.25 14.5 a7.25 7.25 0 1 0 14.5 0 a7.25 7.25 0 1 0 -14.5 0zM384.25 72.5 a7.25 7.25 0 1 0 14.5 0 a7.25 7.25 0 1 0 -14.5 0z" fill="rgba(58, 124, 195, 0.33)"></path><path d="M391.5 304.5L420.5 304.5L449.5 333.5" stroke-width="4.83" stroke="rgba(58, 124, 195, 0.33)"></path><path d="M384.25 304.5 a7.25 7.25 0 1 0 14.5 0 a7.25 7.25 0 1 0 -14.5 0zM442.25 333.5 a7.25 7.25 0 1 0 14.5 0 a7.25 7.25 0 1 0 -14.5 0z" fill="rgba(58, 124, 195, 0.33)"></path><path d="M1145.5 101.5L1174.5 72.5L1203.5 72.5" stroke-width="4.83" stroke="rgba(58, 124, 195, 0.33)"></path><path d="M1138.25 101.5 a7.25 7.25 0 1 0 14.5 0 a7.25 7.25 0 1 0 -14.5 0zM1196.25 72.5 a7.25 7.25 0 1 0 14.5 0 a7.25 7.25 0 1 0 -14.5 0z" fill="rgba(58, 124, 195, 0.33)"></path><path d="M130.5 362.5L130.5 391.5L72.5 449.5L72.5 478.5L101.5 507.5" stroke-width="4.83" stroke="rgba(58, 124, 195, 0.33)"></path><path d="M123.25 362.5 a7.25 7.25 0 1 0 14.5 0 a7.25 7.25 0 1 0 -14.5 0zM94.25 507.5 a7.25 7.25 0 1 0 14.5 0 a7.25 7.25 0 1 0 -14.5 0z" fill="rgba(58, 124, 195, 0.33)"></path><path d="M768.5 536.5L797.5 565.5L855.5 565.5" stroke-width="4.83" stroke="rgba(58, 124, 195, 0.33)"></path><path d="M761.25 536.5 a7.25 7.25 0 1 0 14.5 0 a7.25 7.25 0 1 0 -14.5 0zM848.25 565.5 a7.25 7.25 0 1 0 14.5 0 a7.25 7.25 0 1 0 -14.5 0z" fill="rgba(58, 124, 195, 0.33)"></path><path d="M1203.5 188.5L1203.5 275.5L1232.5 304.5" stroke-width="4.83" stroke="rgba(58, 124, 195, 0.33)"></path><path d="M1196.25 188.5 a7.25 7.25 0 1 0 14.5 0 a7.25 7.25 0 1 0 -14.5 0zM1225.25 304.5 a7.25 7.25 0 1 0 14.5 0 a7.25 7.25 0 1 0 -14.5 0z" fill="rgba(58, 124, 195, 0.33)"></path><path d="M72.5 304.5L43.5 304.5L14.5 275.5" stroke-width="4.83" stroke="rgba(58, 124, 195, 0.33)"></path><path d="M65.25 304.5 a7.25 7.25 0 1 0 14.5 0 a7.25 7.25 0 1 0 -14.5 0zM7.25 275.5 a7.25 7.25 0 1 0 14.5 0 a7.25 7.25 0 1 0 -14.5 0z" fill="rgba(58, 124, 195, 0.33)"></path><path d="M1261.5 188.5L1261.5 275.5" stroke-width="4.83" stroke="rgba(58, 124, 195, 0.33)"></path><path d="M1254.25 188.5 a7.25 7.25 0 1 0 14.5 0 a7.25 7.25 0 1 0 -14.5 0zM1254.25 275.5 a7.25 7.25 0 1 0 14.5 0 a7.25 7.25 0 1 0 -14.5 0z" fill="rgba(58, 124, 195, 0.33)"></path><path d="M1087.5 449.5L1058.5 449.5L1000.5 507.5" stroke-width="4.83" stroke="rgba(58, 124, 195, 0.33)"></path><path d="M1080.25 449.5 a7.25 7.25 0 1 0 14.5 0 a7.25 7.25 0 1 0 -14.5 0zM993.25 507.5 a7.25 7.25 0 1 0 14.5 0 a7.25 7.25 0 1 0 -14.5 0z" fill="rgba(58, 124, 195, 0.33)"></path><path d="M884.5 391.5L884.5 420.5L913.5 449.5" stroke-width="4.83" stroke="rgba(58, 124, 195, 0.33)"></path><path d="M877.25 391.5 a7.25 7.25 0 1 0 14.5 0 a7.25 7.25 0 1 0 -14.5 0zM906.25 449.5 a7.25 7.25 0 1 0 14.5 0 a7.25 7.25 0 1 0 -14.5 0z" fill="rgba(58, 124, 195, 0.33)"></path><path d="M594.5 101.5L652.5 159.5" stroke-width="4.83" stroke="rgba(58, 124, 195, 0.33)"></path><path d="M587.25 101.5 a7.25 7.25 0 1 0 14.5 0 a7.25 7.25 0 1 0 -14.5 0zM645.25 159.5 a7.25 7.25 0 1 0 14.5 0 a7.25 7.25 0 1 0 -14.5 0z" fill="rgba(58, 124, 195, 0.33)"></path><path d="M333.5 362.5L333.5 304.5" stroke-width="4.83" stroke="rgba(58, 124, 195, 0.33)"></path><path d="M326.25 362.5 a7.25 7.25 0 1 0 14.5 0 a7.25 7.25 0 1 0 -14.5 0zM326.25 304.5 a7.25 7.25 0 1 0 14.5 0 a7.25 7.25 0 1 0 -14.5 0z" fill="rgba(58, 124, 195, 0.33)"></path><path d="M478.5 72.5L449.5 72.5L420.5 101.5" stroke-width="4.83" stroke="rgba(58, 124, 195, 0.33)"></path><path d="M471.25 72.5 a7.25 7.25 0 1 0 14.5 0 a7.25 7.25 0 1 0 -14.5 0zM413.25 101.5 a7.25 7.25 0 1 0 14.5 0 a7.25 7.25 0 1 0 -14.5 0z" fill="rgba(58, 124, 195, 0.33)"></path><path d="M652.5 43.5L623.5 14.5L594.5 14.5" stroke-width="4.83" stroke="rgba(58, 124, 195, 0.33)"></path><path d="M645.25 43.5 a7.25 7.25 0 1 0 14.5 0 a7.25 7.25 0 1 0 -14.5 0zM587.25 14.5 a7.25 7.25 0 1 0 14.5 0 a7.25 7.25 0 1 0 -14.5 0z" fill="rgba(58, 124, 195, 0.33)"></path><path d="M188.5 507.5L188.5 391.5L217.5 362.5" stroke-width="4.83" stroke="rgba(58, 124, 195, 0.33)"></path><path d="M181.25 507.5 a7.25 7.25 0 1 0 14.5 0 a7.25 7.25 0 1 0 -14.5 0zM210.25 362.5 a7.25 7.25 0 1 0 14.5 0 a7.25 7.25 0 1 0 -14.5 0z" fill="rgba(58, 124, 195, 0.33)"></path><path d="M391.5 536.5L449.5 536.5L478.5 565.5" stroke-width="4.83" stroke="rgba(58, 124, 195, 0.33)"></path><path d="M384.25 536.5 a7.25 7.25 0 1 0 14.5 0 a7.25 7.25 0 1 0 -14.5 0zM471.25 565.5 a7.25 7.25 0 1 0 14.5 0 a7.25 7.25 0 1 0 -14.5 0z" fill="rgba(58, 124, 195, 0.33)"></path><path d="M855.5 217.5L913.5 217.5" stroke-width="4.83" stroke="rgba(58, 124, 195, 0.33)"></path><path d="M848.25 217.5 a7.25 7.25 0 1 0 14.5 0 a7.25 7.25 0 1 0 -14.5 0zM906.25 217.5 a7.25 7.25 0 1 0 14.5 0 a7.25 7.25 0 1 0 -14.5 0z" fill="rgba(58, 124, 195, 0.33)"></path><path d="M217.5 449.5L217.5 507.5" stroke-width="4.83" stroke="rgba(58, 124, 195, 0.33)"></path><path d="M210.25 449.5 a7.25 7.25 0 1 0 14.5 0 a7.25 7.25 0 1 0 -14.5 0zM210.25 507.5 a7.25 7.25 0 1 0 14.5 0 a7.25 7.25 0 1 0 -14.5 0z" fill="rgba(58, 124, 195, 0.33)"></path><path d="M159.5 333.5L188.5 333.5L246.5 275.5" stroke-width="4.83" stroke="rgba(58, 124, 195, 0.33)"></path><path d="M152.25 333.5 a7.25 7.25 0 1 0 14.5 0 a7.25 7.25 0 1 0 -14.5 0zM239.25 275.5 a7.25 7.25 0 1 0 14.5 0 a7.25 7.25 0 1 0 -14.5 0z" fill="rgba(58, 124, 195, 0.33)"></path><path d="M304.5 72.5L333.5 72.5L391.5 130.5" stroke-width="4.83" stroke="rgba(58, 124, 195, 0.33)"></path><path d="M297.25 72.5 a7.25 7.25 0 1 0 14.5 0 a7.25 7.25 0 1 0 -14.5 0zM384.25 130.5 a7.25 7.25 0 1 0 14.5 0 a7.25 7.25 0 1 0 -14.5 0z" fill="rgba(58, 124, 195, 0.33)"></path><path d="M362.5 478.5L391.5 478.5L420.5 449.5" stroke-width="4.83" stroke="rgba(58, 124, 195, 0.33)"></path><path d="M355.25 478.5 a7.25 7.25 0 1 0 14.5 0 a7.25 7.25 0 1 0 -14.5 0zM413.25 449.5 a7.25 7.25 0 1 0 14.5 0 a7.25 7.25 0 1 0 -14.5 0z" fill="rgba(58, 124, 195, 0.33)"></path><path d="M130.5 275.5L159.5 246.5L159.5 217.5" stroke-width="4.83" stroke="rgba(58, 124, 195, 0.33)"></path><path d="M123.25 275.5 a7.25 7.25 0 1 0 14.5 0 a7.25 7.25 0 1 0 -14.5 0zM152.25 217.5 a7.25 7.25 0 1 0 14.5 0 a7.25 7.25 0 1 0 -14.5 0z" fill="rgba(58, 124, 195, 0.33)"></path><path d="M1116.5 72.5L1116.5 130.5" stroke-width="4.83" stroke="rgba(58, 124, 195, 0.33)"></path><path d="M1109.25 72.5 a7.25 7.25 0 1 0 14.5 0 a7.25 7.25 0 1 0 -14.5 0zM1109.25 130.5 a7.25 7.25 0 1 0 14.5 0 a7.25 7.25 0 1 0 -14.5 0z" fill="rgba(58, 124, 195, 0.33)"></path><path d="M623.5 391.5L710.5 391.5" stroke-width="4.83" stroke="rgba(58, 124, 195, 0.33)"></path><path d="M616.25 391.5 a7.25 7.25 0 1 0 14.5 0 a7.25 7.25 0 1 0 -14.5 0zM703.25 391.5 a7.25 7.25 0 1 0 14.5 0 a7.25 7.25 0 1 0 -14.5 0z" fill="rgba(58, 124, 195, 0.33)"></path><path d="M1000.5 362.5L971.5 333.5L971.5 304.5" stroke-width="4.83" stroke="rgba(58, 124, 195, 0.33)"></path><path d="M993.25 362.5 a7.25 7.25 0 1 0 14.5 0 a7.25 7.25 0 1 0 -14.5 0zM964.25 304.5 a7.25 7.25 0 1 0 14.5 0 a7.25 7.25 0 1 0 -14.5 0z" fill="rgba(58, 124, 195, 0.33)"></path><path d="M1232.5 420.5L1232.5 391.5L1203.5 362.5L1174.5 362.5" stroke-width="4.83" stroke="rgba(58, 124, 195, 0.33)"></path><path d="M1225.25 420.5 a7.25 7.25 0 1 0 14.5 0 a7.25 7.25 0 1 0 -14.5 0zM1167.25 362.5 a7.25 7.25 0 1 0 14.5 0 a7.25 7.25 0 1 0 -14.5 0z" fill="rgba(58, 124, 195, 0.33)"></path><path d="M1435.5 275.5L1435.5 333.5" stroke-width="4.83" stroke="rgba(58, 124, 195, 0.33)"></path><path d="M1428.25 275.5 a7.25 7.25 0 1 0 14.5 0 a7.25 7.25 0 1 0 -14.5 0zM1428.25 333.5 a7.25 7.25 0 1 0 14.5 0 a7.25 7.25 0 1 0 -14.5 0z" fill="rgba(58, 124, 195, 0.33)"></path><path d="M43.5 188.5L43.5 275.5" stroke-width="4.83" stroke="rgba(58, 124, 195, 0.33)"></path><path d="M36.25 188.5 a7.25 7.25 0 1 0 14.5 0 a7.25 7.25 0 1 0 -14.5 0zM36.25 275.5 a7.25 7.25 0 1 0 14.5 0 a7.25 7.25 0 1 0 -14.5 0z" fill="rgba(58, 124, 195, 0.33)"></path><path d="M1406.5 536.5L1348.5 536.5" stroke-width="4.83" stroke="rgba(58, 124, 195, 0.33)"></path><path d="M1399.25 536.5 a7.25 7.25 0 1 0 14.5 0 a7.25 7.25 0 1 0 -14.5 0zM1341.25 536.5 a7.25 7.25 0 1 0 14.5 0 a7.25 7.25 0 1 0 -14.5 0z" fill="rgba(58, 124, 195, 0.33)"></path><path d="M1232.5 275.5L1232.5 130.5" stroke-width="4.83" stroke="rgba(58, 124, 195, 0.33)"></path><path d="M1225.25 275.5 a7.25 7.25 0 1 0 14.5 0 a7.25 7.25 0 1 0 -14.5 0zM1225.25 130.5 a7.25 7.25 0 1 0 14.5 0 a7.25 7.25 0 1 0 -14.5 0z" fill="rgba(58, 124, 195, 0.33)"></path><path d="M275.5 478.5L275.5 391.5" stroke-width="4.83" stroke="rgba(58, 124, 195, 0.33)"></path><path d="M268.25 478.5 a7.25 7.25 0 1 0 14.5 0 a7.25 7.25 0 1 0 -14.5 0zM268.25 391.5 a7.25 7.25 0 1 0 14.5 0 a7.25 7.25 0 1 0 -14.5 0z" fill="rgba(58, 124, 195, 0.33)"></path><path d="M14.5 449.5L14.5 507.5" stroke-width="4.83" stroke="rgba(58, 124, 195, 0.33)"></path><path d="M7.25 449.5 a7.25 7.25 0 1 0 14.5 0 a7.25 7.25 0 1 0 -14.5 0zM7.25 507.5 a7.25 7.25 0 1 0 14.5 0 a7.25 7.25 0 1 0 -14.5 0z" fill="rgba(58, 124, 195, 0.33)"></path><path d="M681.5 43.5L623.5 101.5" stroke-width="4.83" stroke="rgba(58, 124, 195, 0.33)"></path><path d="M674.25 43.5 a7.25 7.25 0 1 0 14.5 0 a7.25 7.25 0 1 0 -14.5 0zM616.25 101.5 a7.25 7.25 0 1 0 14.5 0 a7.25 7.25 0 1 0 -14.5 0z" fill="rgba(58, 124, 195, 0.33)"></path><path d="M623.5 362.5L652.5 333.5L652.5 304.5" stroke-width="4.83" stroke="rgba(58, 124, 195, 0.33)"></path><path d="M616.25 362.5 a7.25 7.25 0 1 0 14.5 0 a7.25 7.25 0 1 0 -14.5 0zM645.25 304.5 a7.25 7.25 0 1 0 14.5 0 a7.25 7.25 0 1 0 -14.5 0z" fill="rgba(58, 124, 195, 0.33)"></path><path d="M101.5 130.5L101.5 159.5L72.5 188.5" stroke-width="4.83" stroke="rgba(58, 124, 195, 0.33)"></path><path d="M94.25 130.5 a7.25 7.25 0 1 0 14.5 0 a7.25 7.25 0 1 0 -14.5 0zM65.25 188.5 a7.25 7.25 0 1 0 14.5 0 a7.25 7.25 0 1 0 -14.5 0z" fill="rgba(58, 124, 195, 0.33)"></path><path d="M101.5 217.5L72.5 246.5L72.5 275.5" stroke-width="4.83" stroke="rgba(58, 124, 195, 0.33)"></path><path d="M94.25 217.5 a7.25 7.25 0 1 0 14.5 0 a7.25 7.25 0 1 0 -14.5 0zM65.25 275.5 a7.25 7.25 0 1 0 14.5 0 a7.25 7.25 0 1 0 -14.5 0z" fill="rgba(58, 124, 195, 0.33)"></path><path d="M362.5 391.5L362.5 333.5" stroke-width="4.83" stroke="rgba(58, 124, 195, 0.33)"></path><path d="M355.25 391.5 a7.25 7.25 0 1 0 14.5 0 a7.25 7.25 0 1 0 -14.5 0zM355.25 333.5 a7.25 7.25 0 1 0 14.5 0 a7.25 7.25 0 1 0 -14.5 0z" fill="rgba(58, 124, 195, 0.33)"></path><path d="M565.5 333.5L565.5 246.5" stroke-width="4.83" stroke="rgba(58, 124, 195, 0.33)"></path><path d="M558.25 333.5 a7.25 7.25 0 1 0 14.5 0 a7.25 7.25 0 1 0 -14.5 0zM558.25 246.5 a7.25 7.25 0 1 0 14.5 0 a7.25 7.25 0 1 0 -14.5 0z" fill="rgba(58, 124, 195, 0.33)"></path><path d="M72.5 101.5L101.5 72.5L130.5 72.5" stroke-width="4.83" stroke="rgba(58, 124, 195, 0.33)"></path><path d="M65.25 101.5 a7.25 7.25 0 1 0 14.5 0 a7.25 7.25 0 1 0 -14.5 0zM123.25 72.5 a7.25 7.25 0 1 0 14.5 0 a7.25 7.25 0 1 0 -14.5 0z" fill="rgba(58, 124, 195, 0.33)"></path><path d="M159.5 449.5L130.5 478.5L101.5 478.5" stroke-width="4.83" stroke="rgba(58, 124, 195, 0.33)"></path><path d="M152.25 449.5 a7.25 7.25 0 1 0 14.5 0 a7.25 7.25 0 1 0 -14.5 0zM94.25 478.5 a7.25 7.25 0 1 0 14.5 0 a7.25 7.25 0 1 0 -14.5 0z" fill="rgba(58, 124, 195, 0.33)"></path><path d="M1000.5 72.5L1058.5 72.5" stroke-width="4.83" stroke="rgba(58, 124, 195, 0.33)"></path><path d="M993.25 72.5 a7.25 7.25 0 1 0 14.5 0 a7.25 7.25 0 1 0 -14.5 0zM1051.25 72.5 a7.25 7.25 0 1 0 14.5 0 a7.25 7.25 0 1 0 -14.5 0z" fill="rgba(58, 124, 195, 0.33)"></path><path d="M855.5 333.5L826.5 304.5L826.5 275.5" stroke-width="4.83" stroke="rgba(58, 124, 195, 0.33)"></path><path d="M848.25 333.5 a7.25 7.25 0 1 0 14.5 0 a7.25 7.25 0 1 0 -14.5 0zM819.25 275.5 a7.25 7.25 0 1 0 14.5 0 a7.25 7.25 0 1 0 -14.5 0z" fill="rgba(58, 124, 195, 0.33)"></path><path d="M362.5 565.5L449.5 565.5" stroke-width="4.83" stroke="rgba(58, 124, 195, 0.33)"></path><path d="M355.25 565.5 a7.25 7.25 0 1 0 14.5 0 a7.25 7.25 0 1 0 -14.5 0zM442.25 565.5 a7.25 7.25 0 1 0 14.5 0 a7.25 7.25 0 1 0 -14.5 0z" fill="rgba(58, 124, 195, 0.33)"></path></g></g><defs><mask id="SvgjsMask1005"><rect width="1440" height="560" fill="#ffffff"></rect></mask><linearGradient x1="15.28%" y1="-39.29%" x2="84.72%" y2="139.29%" gradientUnits="userSpaceOnUse" id="SvgjsLinearGradient1006"><stop stop-color="#0e2a47" offset="0"></stop><stop stop-color="#00459e" offset="1"></stop></linearGradient><mask id="SvgjsMask1007"><rect width="1440" height="560" fill="white"></rect><path d="M445.87 420.5 a3.63 3.63 0 1 0 7.26 0 a3.63 3.63 0 1 0 -7.26 0zM532.87 14.5 a3.63 3.63 0 1 0 7.26 0 a3.63 3.63 0 1 0 -7.26 0z" fill="black"></path><path d="M619.87 188.5 a3.63 3.63 0 1 0 7.26 0 a3.63 3.63 0 1 0 -7.26 0zM1170.87 304.5 a3.63 3.63 0 1 0 7.26 0 a3.63 3.63 0 1 0 -7.26 0z" fill="black"></path><path d="M1286.87 217.5 a3.63 3.63 0 1 0 7.26 0 a3.63 3.63 0 1 0 -7.26 0zM1431.87 565.5 a3.63 3.63 0 1 0 7.26 0 a3.63 3.63 0 1 0 -7.26 0z" fill="black"></path><path d="M300.87 188.5 a3.63 3.63 0 1 0 7.26 0 a3.63 3.63 0 1 0 -7.26 0zM503.87 188.5 a3.63 3.63 0 1 0 7.26 0 a3.63 3.63 0 1 0 -7.26 0z" fill="black"></path><path d="M706.87 362.5 a3.63 3.63 0 1 0 7.26 0 a3.63 3.63 0 1 0 -7.26 0zM1257.87 565.5 a3.63 3.63 0 1 0 7.26 0 a3.63 3.63 0 1 0 -7.26 0z" fill="black"></path><path d="M532.87 391.5 a3.63 3.63 0 1 0 7.26 0 a3.63 3.63 0 1 0 -7.26 0zM10.87 565.5 a3.63 3.63 0 1 0 7.26 0 a3.63 3.63 0 1 0 -7.26 0z" fill="black"></path><path d="M967.87 275.5 a3.63 3.63 0 1 0 7.26 0 a3.63 3.63 0 1 0 -7.26 0zM735.87 14.5 a3.63 3.63 0 1 0 7.26 0 a3.63 3.63 0 1 0 -7.26 0z" fill="black"></path><path d="M300.87 275.5 a3.63 3.63 0 1 0 7.26 0 a3.63 3.63 0 1 0 -7.26 0zM10.87 14.5 a3.63 3.63 0 1 0 7.26 0 a3.63 3.63 0 1 0 -7.26 0z" fill="black"></path><path d="M764.87 159.5 a3.63 3.63 0 1 0 7.26 0 a3.63 3.63 0 1 0 -7.26 0zM938.87 478.5 a3.63 3.63 0 1 0 7.26 0 a3.63 3.63 0 1 0 -7.26 0z" fill="black"></path><path d="M329.87 246.5 a3.63 3.63 0 1 0 7.26 0 a3.63 3.63 0 1 0 -7.26 0zM503.87 333.5 a3.63 3.63 0 1 0 7.26 0 a3.63 3.63 0 1 0 -7.26 0z" fill="black"></path><path d="M1199.87 536.5 a3.63 3.63 0 1 0 7.26 0 a3.63 3.63 0 1 0 -7.26 0zM677.87 275.5 a3.63 3.63 0 1 0 7.26 0 a3.63 3.63 0 1 0 -7.26 0z" fill="black"></path><path d="M1083.87 188.5 a3.63 3.63 0 1 0 7.26 0 a3.63 3.63 0 1 0 -7.26 0zM1083.87 14.5 a3.63 3.63 0 1 0 7.26 0 a3.63 3.63 0 1 0 -7.26 0z" fill="black"></path><path d="M1431.87 159.5 a3.63 3.63 0 1 0 7.26 0 a3.63 3.63 0 1 0 -7.26 0zM1054.87 391.5 a3.63 3.63 0 1 0 7.26 0 a3.63 3.63 0 1 0 -7.26 0z" fill="black"></path><path d="M793.87 101.5 a3.63 3.63 0 1 0 7.26 0 a3.63 3.63 0 1 0 -7.26 0zM851.87 130.5 a3.63 3.63 0 1 0 7.26 0 a3.63 3.63 0 1 0 -7.26 0z" fill="black"></path><path d="M677.87 536.5 a3.63 3.63 0 1 0 7.26 0 a3.63 3.63 0 1 0 -7.26 0zM735.87 420.5 a3.63 3.63 0 1 0 7.26 0 a3.63 3.63 0 1 0 -7.26 0z" fill="black"></path><path d="M1315.87 14.5 a3.63 3.63 0 1 0 7.26 0 a3.63 3.63 0 1 0 -7.26 0zM1431.87 130.5 a3.63 3.63 0 1 0 7.26 0 a3.63 3.63 0 1 0 -7.26 0z" fill="black"></path><path d="M300.87 333.5 a3.63 3.63 0 1 0 7.26 0 a3.63 3.63 0 1 0 -7.26 0zM300.87 536.5 a3.63 3.63 0 1 0 7.26 0 a3.63 3.63 0 1 0 -7.26 0z" fill="black"></path><path d="M1286.87 275.5 a3.63 3.63 0 1 0 7.26 0 a3.63 3.63 0 1 0 -7.26 0zM1286.87 565.5 a3.63 3.63 0 1 0 7.26 0 a3.63 3.63 0 1 0 -7.26 0z" fill="black"></path><path d="M1025.87 246.5 a3.63 3.63 0 1 0 7.26 0 a3.63 3.63 0 1 0 -7.26 0zM967.87 478.5 a3.63 3.63 0 1 0 7.26 0 a3.63 3.63 0 1 0 -7.26 0z" fill="black"></path><path d="M39.87 420.5 a3.63 3.63 0 1 0 7.26 0 a3.63 3.63 0 1 0 -7.26 0zM271.87 246.5 a3.63 3.63 0 1 0 7.26 0 a3.63 3.63 0 1 0 -7.26 0z" fill="black"></path><path d="M619.87 449.5 a3.63 3.63 0 1 0 7.26 0 a3.63 3.63 0 1 0 -7.26 0zM590.87 449.5 a3.63 3.63 0 1 0 7.26 0 a3.63 3.63 0 1 0 -7.26 0z" fill="black"></path><path d="M1199.87 333.5 a3.63 3.63 0 1 0 7.26 0 a3.63 3.63 0 1 0 -7.26 0zM1257.87 536.5 a3.63 3.63 0 1 0 7.26 0 a3.63 3.63 0 1 0 -7.26 0z" fill="black"></path><path d="M851.87 188.5 a3.63 3.63 0 1 0 7.26 0 a3.63 3.63 0 1 0 -7.26 0zM561.87 14.5 a3.63 3.63 0 1 0 7.26 0 a3.63 3.63 0 1 0 -7.26 0z" fill="black"></path><path d="M1315.87 449.5 a3.63 3.63 0 1 0 7.26 0 a3.63 3.63 0 1 0 -7.26 0zM1315.87 275.5 a3.63 3.63 0 1 0 7.26 0 a3.63 3.63 0 1 0 -7.26 0z" fill="black"></path><path d="M387.87 391.5 a3.63 3.63 0 1 0 7.26 0 a3.63 3.63 0 1 0 -7.26 0zM329.87 449.5 a3.63 3.63 0 1 0 7.26 0 a3.63 3.63 0 1 0 -7.26 0z" fill="black"></path><path d="M706.87 217.5 a3.63 3.63 0 1 0 7.26 0 a3.63 3.63 0 1 0 -7.26 0zM909.87 362.5 a3.63 3.63 0 1 0 7.26 0 a3.63 3.63 0 1 0 -7.26 0z" fill="black"></path><path d="M1257.87 362.5 a3.63 3.63 0 1 0 7.26 0 a3.63 3.63 0 1 0 -7.26 0zM1170.87 130.5 a3.63 3.63 0 1 0 7.26 0 a3.63 3.63 0 1 0 -7.26 0z" fill="black"></path><path d="M97.87 304.5 a3.63 3.63 0 1 0 7.26 0 a3.63 3.63 0 1 0 -7.26 0zM10.87 246.5 a3.63 3.63 0 1 0 7.26 0 a3.63 3.63 0 1 0 -7.26 0z" fill="black"></path><path d="M126.87 507.5 a3.63 3.63 0 1 0 7.26 0 a3.63 3.63 0 1 0 -7.26 0zM271.87 536.5 a3.63 3.63 0 1 0 7.26 0 a3.63 3.63 0 1 0 -7.26 0z" fill="black"></path><path d="M387.87 333.5 a3.63 3.63 0 1 0 7.26 0 a3.63 3.63 0 1 0 -7.26 0zM329.87 275.5 a3.63 3.63 0 1 0 7.26 0 a3.63 3.63 0 1 0 -7.26 0z" fill="black"></path><path d="M387.87 159.5 a3.63 3.63 0 1 0 7.26 0 a3.63 3.63 0 1 0 -7.26 0zM503.87 14.5 a3.63 3.63 0 1 0 7.26 0 a3.63 3.63 0 1 0 -7.26 0z" fill="black"></path><path d="M1054.87 275.5 a3.63 3.63 0 1 0 7.26 0 a3.63 3.63 0 1 0 -7.26 0zM1112.87 275.5 a3.63 3.63 0 1 0 7.26 0 a3.63 3.63 0 1 0 -7.26 0z" fill="black"></path><path d="M39.87 478.5 a3.63 3.63 0 1 0 7.26 0 a3.63 3.63 0 1 0 -7.26 0zM126.87 536.5 a3.63 3.63 0 1 0 7.26 0 a3.63 3.63 0 1 0 -7.26 0z" fill="black"></path><path d="M996.87 159.5 a3.63 3.63 0 1 0 7.26 0 a3.63 3.63 0 1 0 -7.26 0zM1054.87 246.5 a3.63 3.63 0 1 0 7.26 0 a3.63 3.63 0 1 0 -7.26 0z" fill="black"></path><path d="M271.87 304.5 a3.63 3.63 0 1 0 7.26 0 a3.63 3.63 0 1 0 -7.26 0zM242.87 507.5 a3.63 3.63 0 1 0 7.26 0 a3.63 3.63 0 1 0 -7.26 0z" fill="black"></path><path d="M648.87 507.5 a3.63 3.63 0 1 0 7.26 0 a3.63 3.63 0 1 0 -7.26 0zM648.87 449.5 a3.63 3.63 0 1 0 7.26 0 a3.63 3.63 0 1 0 -7.26 0z" fill="black"></path><path d="M213.87 14.5 a3.63 3.63 0 1 0 7.26 0 a3.63 3.63 0 1 0 -7.26 0zM271.87 159.5 a3.63 3.63 0 1 0 7.26 0 a3.63 3.63 0 1 0 -7.26 0z" fill="black"></path><path d="M1431.87 217.5 a3.63 3.63 0 1 0 7.26 0 a3.63 3.63 0 1 0 -7.26 0zM1257.87 130.5 a3.63 3.63 0 1 0 7.26 0 a3.63 3.63 0 1 0 -7.26 0z" fill="black"></path><path d="M996.87 275.5 a3.63 3.63 0 1 0 7.26 0 a3.63 3.63 0 1 0 -7.26 0zM851.87 14.5 a3.63 3.63 0 1 0 7.26 0 a3.63 3.63 0 1 0 -7.26 0z" fill="black"></path><path d="M967.87 101.5 a3.63 3.63 0 1 0 7.26 0 a3.63 3.63 0 1 0 -7.26 0zM1054.87 188.5 a3.63 3.63 0 1 0 7.26 0 a3.63 3.63 0 1 0 -7.26 0z" fill="black"></path><path d="M416.87 391.5 a3.63 3.63 0 1 0 7.26 0 a3.63 3.63 0 1 0 -7.26 0zM358.87 246.5 a3.63 3.63 0 1 0 7.26 0 a3.63 3.63 0 1 0 -7.26 0z" fill="black"></path><path d="M387.87 362.5 a3.63 3.63 0 1 0 7.26 0 a3.63 3.63 0 1 0 -7.26 0zM445.87 362.5 a3.63 3.63 0 1 0 7.26 0 a3.63 3.63 0 1 0 -7.26 0z" fill="black"></path><path d="M648.87 565.5 a3.63 3.63 0 1 0 7.26 0 a3.63 3.63 0 1 0 -7.26 0zM880.87 565.5 a3.63 3.63 0 1 0 7.26 0 a3.63 3.63 0 1 0 -7.26 0z" fill="black"></path><path d="M10.87 304.5 a3.63 3.63 0 1 0 7.26 0 a3.63 3.63 0 1 0 -7.26 0zM68.87 362.5 a3.63 3.63 0 1 0 7.26 0 a3.63 3.63 0 1 0 -7.26 0z" fill="black"></path><path d="M1373.87 420.5 a3.63 3.63 0 1 0 7.26 0 a3.63 3.63 0 1 0 -7.26 0zM1315.87 565.5 a3.63 3.63 0 1 0 7.26 0 a3.63 3.63 0 1 0 -7.26 0z" fill="black"></path><path d="M97.87 449.5 a3.63 3.63 0 1 0 7.26 0 a3.63 3.63 0 1 0 -7.26 0zM271.87 275.5 a3.63 3.63 0 1 0 7.26 0 a3.63 3.63 0 1 0 -7.26 0z" fill="black"></path><path d="M1025.87 43.5 a3.63 3.63 0 1 0 7.26 0 a3.63 3.63 0 1 0 -7.26 0zM938.87 101.5 a3.63 3.63 0 1 0 7.26 0 a3.63 3.63 0 1 0 -7.26 0z" fill="black"></path><path d="M706.87 101.5 a3.63 3.63 0 1 0 7.26 0 a3.63 3.63 0 1 0 -7.26 0zM793.87 72.5 a3.63 3.63 0 1 0 7.26 0 a3.63 3.63 0 1 0 -7.26 0z" fill="black"></path><path d="M909.87 72.5 a3.63 3.63 0 1 0 7.26 0 a3.63 3.63 0 1 0 -7.26 0zM880.87 14.5 a3.63 3.63 0 1 0 7.26 0 a3.63 3.63 0 1 0 -7.26 0z" fill="black"></path><path d="M1170.87 478.5 a3.63 3.63 0 1 0 7.26 0 a3.63 3.63 0 1 0 -7.26 0zM1228.87 478.5 a3.63 3.63 0 1 0 7.26 0 a3.63 3.63 0 1 0 -7.26 0z" fill="black"></path><path d="M1112.87 159.5 a3.63 3.63 0 1 0 7.26 0 a3.63 3.63 0 1 0 -7.26 0zM1112.87 246.5 a3.63 3.63 0 1 0 7.26 0 a3.63 3.63 0 1 0 -7.26 0z" fill="black"></path><path d="M677.87 304.5 a3.63 3.63 0 1 0 7.26 0 a3.63 3.63 0 1 0 -7.26 0zM561.87 130.5 a3.63 3.63 0 1 0 7.26 0 a3.63 3.63 0 1 0 -7.26 0z" fill="black"></path><path d="M416.87 217.5 a3.63 3.63 0 1 0 7.26 0 a3.63 3.63 0 1 0 -7.26 0zM503.87 217.5 a3.63 3.63 0 1 0 7.26 0 a3.63 3.63 0 1 0 -7.26 0z" fill="black"></path><path d="M1402.87 304.5 a3.63 3.63 0 1 0 7.26 0 a3.63 3.63 0 1 0 -7.26 0zM1344.87 246.5 a3.63 3.63 0 1 0 7.26 0 a3.63 3.63 0 1 0 -7.26 0z" fill="black"></path><path d="M793.87 246.5 a3.63 3.63 0 1 0 7.26 0 a3.63 3.63 0 1 0 -7.26 0zM909.87 304.5 a3.63 3.63 0 1 0 7.26 0 a3.63 3.63 0 1 0 -7.26 0z" fill="black"></path><path d="M68.87 217.5 a3.63 3.63 0 1 0 7.26 0 a3.63 3.63 0 1 0 -7.26 0zM155.87 72.5 a3.63 3.63 0 1 0 7.26 0 a3.63 3.63 0 1 0 -7.26 0z" fill="black"></path><path d="M1141.87 478.5 a3.63 3.63 0 1 0 7.26 0 a3.63 3.63 0 1 0 -7.26 0zM1083.87 420.5 a3.63 3.63 0 1 0 7.26 0 a3.63 3.63 0 1 0 -7.26 0z" fill="black"></path><path d="M329.87 130.5 a3.63 3.63 0 1 0 7.26 0 a3.63 3.63 0 1 0 -7.26 0zM242.87 14.5 a3.63 3.63 0 1 0 7.26 0 a3.63 3.63 0 1 0 -7.26 0z" fill="black"></path><path d="M590.87 333.5 a3.63 3.63 0 1 0 7.26 0 a3.63 3.63 0 1 0 -7.26 0zM561.87 217.5 a3.63 3.63 0 1 0 7.26 0 a3.63 3.63 0 1 0 -7.26 0z" fill="black"></path><path d="M735.87 449.5 a3.63 3.63 0 1 0 7.26 0 a3.63 3.63 0 1 0 -7.26 0zM677.87 507.5 a3.63 3.63 0 1 0 7.26 0 a3.63 3.63 0 1 0 -7.26 0z" fill="black"></path><path d="M1344.87 14.5 a3.63 3.63 0 1 0 7.26 0 a3.63 3.63 0 1 0 -7.26 0zM1431.87 101.5 a3.63 3.63 0 1 0 7.26 0 a3.63 3.63 0 1 0 -7.26 0z" fill="black"></path><path d="M68.87 536.5 a3.63 3.63 0 1 0 7.26 0 a3.63 3.63 0 1 0 -7.26 0zM10.87 536.5 a3.63 3.63 0 1 0 7.26 0 a3.63 3.63 0 1 0 -7.26 0z" fill="black"></path><path d="M1170.87 14.5 a3.63 3.63 0 1 0 7.26 0 a3.63 3.63 0 1 0 -7.26 0zM1286.87 14.5 a3.63 3.63 0 1 0 7.26 0 a3.63 3.63 0 1 0 -7.26 0z" fill="black"></path><path d="M300.87 43.5 a3.63 3.63 0 1 0 7.26 0 a3.63 3.63 0 1 0 -7.26 0zM445.87 130.5 a3.63 3.63 0 1 0 7.26 0 a3.63 3.63 0 1 0 -7.26 0z" fill="black"></path><path d="M416.87 72.5 a3.63 3.63 0 1 0 7.26 0 a3.63 3.63 0 1 0 -7.26 0zM416.87 14.5 a3.63 3.63 0 1 0 7.26 0 a3.63 3.63 0 1 0 -7.26 0z" fill="black"></path><path d="M735.87 101.5 a3.63 3.63 0 1 0 7.26 0 a3.63 3.63 0 1 0 -7.26 0zM735.87 159.5 a3.63 3.63 0 1 0 7.26 0 a3.63 3.63 0 1 0 -7.26 0z" fill="black"></path><path d="M1170.87 420.5 a3.63 3.63 0 1 0 7.26 0 a3.63 3.63 0 1 0 -7.26 0zM1170.87 333.5 a3.63 3.63 0 1 0 7.26 0 a3.63 3.63 0 1 0 -7.26 0z" fill="black"></path><path d="M271.87 14.5 a3.63 3.63 0 1 0 7.26 0 a3.63 3.63 0 1 0 -7.26 0zM387.87 72.5 a3.63 3.63 0 1 0 7.26 0 a3.63 3.63 0 1 0 -7.26 0z" fill="black"></path><path d="M387.87 304.5 a3.63 3.63 0 1 0 7.26 0 a3.63 3.63 0 1 0 -7.26 0zM445.87 333.5 a3.63 3.63 0 1 0 7.26 0 a3.63 3.63 0 1 0 -7.26 0z" fill="black"></path><path d="M1141.87 101.5 a3.63 3.63 0 1 0 7.26 0 a3.63 3.63 0 1 0 -7.26 0zM1199.87 72.5 a3.63 3.63 0 1 0 7.26 0 a3.63 3.63 0 1 0 -7.26 0z" fill="black"></path><path d="M126.87 362.5 a3.63 3.63 0 1 0 7.26 0 a3.63 3.63 0 1 0 -7.26 0zM97.87 507.5 a3.63 3.63 0 1 0 7.26 0 a3.63 3.63 0 1 0 -7.26 0z" fill="black"></path><path d="M764.87 536.5 a3.63 3.63 0 1 0 7.26 0 a3.63 3.63 0 1 0 -7.26 0zM851.87 565.5 a3.63 3.63 0 1 0 7.26 0 a3.63 3.63 0 1 0 -7.26 0z" fill="black"></path><path d="M1199.87 188.5 a3.63 3.63 0 1 0 7.26 0 a3.63 3.63 0 1 0 -7.26 0zM1228.87 304.5 a3.63 3.63 0 1 0 7.26 0 a3.63 3.63 0 1 0 -7.26 0z" fill="black"></path><path d="M68.87 304.5 a3.63 3.63 0 1 0 7.26 0 a3.63 3.63 0 1 0 -7.26 0zM10.87 275.5 a3.63 3.63 0 1 0 7.26 0 a3.63 3.63 0 1 0 -7.26 0z" fill="black"></path><path d="M1257.87 188.5 a3.63 3.63 0 1 0 7.26 0 a3.63 3.63 0 1 0 -7.26 0zM1257.87 275.5 a3.63 3.63 0 1 0 7.26 0 a3.63 3.63 0 1 0 -7.26 0z" fill="black"></path><path d="M1083.87 449.5 a3.63 3.63 0 1 0 7.26 0 a3.63 3.63 0 1 0 -7.26 0zM996.87 507.5 a3.63 3.63 0 1 0 7.26 0 a3.63 3.63 0 1 0 -7.26 0z" fill="black"></path><path d="M880.87 391.5 a3.63 3.63 0 1 0 7.26 0 a3.63 3.63 0 1 0 -7.26 0zM909.87 449.5 a3.63 3.63 0 1 0 7.26 0 a3.63 3.63 0 1 0 -7.26 0z" fill="black"></path><path d="M590.87 101.5 a3.63 3.63 0 1 0 7.26 0 a3.63 3.63 0 1 0 -7.26 0zM648.87 159.5 a3.63 3.63 0 1 0 7.26 0 a3.63 3.63 0 1 0 -7.26 0z" fill="black"></path><path d="M329.87 362.5 a3.63 3.63 0 1 0 7.26 0 a3.63 3.63 0 1 0 -7.26 0zM329.87 304.5 a3.63 3.63 0 1 0 7.26 0 a3.63 3.63 0 1 0 -7.26 0z" fill="black"></path><path d="M474.87 72.5 a3.63 3.63 0 1 0 7.26 0 a3.63 3.63 0 1 0 -7.26 0zM416.87 101.5 a3.63 3.63 0 1 0 7.26 0 a3.63 3.63 0 1 0 -7.26 0z" fill="black"></path><path d="M648.87 43.5 a3.63 3.63 0 1 0 7.26 0 a3.63 3.63 0 1 0 -7.26 0zM590.87 14.5 a3.63 3.63 0 1 0 7.26 0 a3.63 3.63 0 1 0 -7.26 0z" fill="black"></path><path d="M184.87 507.5 a3.63 3.63 0 1 0 7.26 0 a3.63 3.63 0 1 0 -7.26 0zM213.87 362.5 a3.63 3.63 0 1 0 7.26 0 a3.63 3.63 0 1 0 -7.26 0z" fill="black"></path><path d="M387.87 536.5 a3.63 3.63 0 1 0 7.26 0 a3.63 3.63 0 1 0 -7.26 0zM474.87 565.5 a3.63 3.63 0 1 0 7.26 0 a3.63 3.63 0 1 0 -7.26 0z" fill="black"></path><path d="M851.87 217.5 a3.63 3.63 0 1 0 7.26 0 a3.63 3.63 0 1 0 -7.26 0zM909.87 217.5 a3.63 3.63 0 1 0 7.26 0 a3.63 3.63 0 1 0 -7.26 0z" fill="black"></path><path d="M213.87 449.5 a3.63 3.63 0 1 0 7.26 0 a3.63 3.63 0 1 0 -7.26 0zM213.87 507.5 a3.63 3.63 0 1 0 7.26 0 a3.63 3.63 0 1 0 -7.26 0z" fill="black"></path><path d="M155.87 333.5 a3.63 3.63 0 1 0 7.26 0 a3.63 3.63 0 1 0 -7.26 0zM242.87 275.5 a3.63 3.63 0 1 0 7.26 0 a3.63 3.63 0 1 0 -7.26 0z" fill="black"></path><path d="M300.87 72.5 a3.63 3.63 0 1 0 7.26 0 a3.63 3.63 0 1 0 -7.26 0zM387.87 130.5 a3.63 3.63 0 1 0 7.26 0 a3.63 3.63 0 1 0 -7.26 0z" fill="black"></path><path d="M358.87 478.5 a3.63 3.63 0 1 0 7.26 0 a3.63 3.63 0 1 0 -7.26 0zM416.87 449.5 a3.63 3.63 0 1 0 7.26 0 a3.63 3.63 0 1 0 -7.26 0z" fill="black"></path><path d="M126.87 275.5 a3.63 3.63 0 1 0 7.26 0 a3.63 3.63 0 1 0 -7.26 0zM155.87 217.5 a3.63 3.63 0 1 0 7.26 0 a3.63 3.63 0 1 0 -7.26 0z" fill="black"></path><path d="M1112.87 72.5 a3.63 3.63 0 1 0 7.26 0 a3.63 3.63 0 1 0 -7.26 0zM1112.87 130.5 a3.63 3.63 0 1 0 7.26 0 a3.63 3.63 0 1 0 -7.26 0z" fill="black"></path><path d="M619.87 391.5 a3.63 3.63 0 1 0 7.26 0 a3.63 3.63 0 1 0 -7.26 0zM706.87 391.5 a3.63 3.63 0 1 0 7.26 0 a3.63 3.63 0 1 0 -7.26 0z" fill="black"></path><path d="M996.87 362.5 a3.63 3.63 0 1 0 7.26 0 a3.63 3.63 0 1 0 -7.26 0zM967.87 304.5 a3.63 3.63 0 1 0 7.26 0 a3.63 3.63 0 1 0 -7.26 0z" fill="black"></path><path d="M1228.87 420.5 a3.63 3.63 0 1 0 7.26 0 a3.63 3.63 0 1 0 -7.26 0zM1170.87 362.5 a3.63 3.63 0 1 0 7.26 0 a3.63 3.63 0 1 0 -7.26 0z" fill="black"></path><path d="M1431.87 275.5 a3.63 3.63 0 1 0 7.26 0 a3.63 3.63 0 1 0 -7.26 0zM1431.87 333.5 a3.63 3.63 0 1 0 7.26 0 a3.63 3.63 0 1 0 -7.26 0z" fill="black"></path><path d="M39.87 188.5 a3.63 3.63 0 1 0 7.26 0 a3.63 3.63 0 1 0 -7.26 0zM39.87 275.5 a3.63 3.63 0 1 0 7.26 0 a3.63 3.63 0 1 0 -7.26 0z" fill="black"></path><path d="M1402.87 536.5 a3.63 3.63 0 1 0 7.26 0 a3.63 3.63 0 1 0 -7.26 0zM1344.87 536.5 a3.63 3.63 0 1 0 7.26 0 a3.63 3.63 0 1 0 -7.26 0z" fill="black"></path><path d="M1228.87 275.5 a3.63 3.63 0 1 0 7.26 0 a3.63 3.63 0 1 0 -7.26 0zM1228.87 130.5 a3.63 3.63 0 1 0 7.26 0 a3.63 3.63 0 1 0 -7.26 0z" fill="black"></path><path d="M271.87 478.5 a3.63 3.63 0 1 0 7.26 0 a3.63 3.63 0 1 0 -7.26 0zM271.87 391.5 a3.63 3.63 0 1 0 7.26 0 a3.63 3.63 0 1 0 -7.26 0z" fill="black"></path><path d="M10.87 449.5 a3.63 3.63 0 1 0 7.26 0 a3.63 3.63 0 1 0 -7.26 0zM10.87 507.5 a3.63 3.63 0 1 0 7.26 0 a3.63 3.63 0 1 0 -7.26 0z" fill="black"></path><path d="M677.87 43.5 a3.63 3.63 0 1 0 7.26 0 a3.63 3.63 0 1 0 -7.26 0zM619.87 101.5 a3.63 3.63 0 1 0 7.26 0 a3.63 3.63 0 1 0 -7.26 0z" fill="black"></path><path d="M619.87 362.5 a3.63 3.63 0 1 0 7.26 0 a3.63 3.63 0 1 0 -7.26 0zM648.87 304.5 a3.63 3.63 0 1 0 7.26 0 a3.63 3.63 0 1 0 -7.26 0z" fill="black"></path><path d="M97.87 130.5 a3.63 3.63 0 1 0 7.26 0 a3.63 3.63 0 1 0 -7.26 0zM68.87 188.5 a3.63 3.63 0 1 0 7.26 0 a3.63 3.63 0 1 0 -7.26 0z" fill="black"></path><path d="M97.87 217.5 a3.63 3.63 0 1 0 7.26 0 a3.63 3.63 0 1 0 -7.26 0zM68.87 275.5 a3.63 3.63 0 1 0 7.26 0 a3.63 3.63 0 1 0 -7.26 0z" fill="black"></path><path d="M358.87 391.5 a3.63 3.63 0 1 0 7.26 0 a3.63 3.63 0 1 0 -7.26 0zM358.87 333.5 a3.63 3.63 0 1 0 7.26 0 a3.63 3.63 0 1 0 -7.26 0z" fill="black"></path><path d="M561.87 333.5 a3.63 3.63 0 1 0 7.26 0 a3.63 3.63 0 1 0 -7.26 0zM561.87 246.5 a3.63 3.63 0 1 0 7.26 0 a3.63 3.63 0 1 0 -7.26 0z" fill="black"></path><path d="M68.87 101.5 a3.63 3.63 0 1 0 7.26 0 a3.63 3.63 0 1 0 -7.26 0zM126.87 72.5 a3.63 3.63 0 1 0 7.26 0 a3.63 3.63 0 1 0 -7.26 0z" fill="black"></path><path d="M155.87 449.5 a3.63 3.63 0 1 0 7.26 0 a3.63 3.63 0 1 0 -7.26 0zM97.87 478.5 a3.63 3.63 0 1 0 7.26 0 a3.63 3.63 0 1 0 -7.26 0z" fill="black"></path><path d="M996.87 72.5 a3.63 3.63 0 1 0 7.26 0 a3.63 3.63 0 1 0 -7.26 0zM1054.87 72.5 a3.63 3.63 0 1 0 7.26 0 a3.63 3.63 0 1 0 -7.26 0z" fill="black"></path><path d="M851.87 333.5 a3.63 3.63 0 1 0 7.26 0 a3.63 3.63 0 1 0 -7.26 0zM822.87 275.5 a3.63 3.63 0 1 0 7.26 0 a3.63 3.63 0 1 0 -7.26 0z" fill="black"></path><path d="M358.87 565.5 a3.63 3.63 0 1 0 7.26 0 a3.63 3.63 0 1 0 -7.26 0zM445.87 565.5 a3.63 3.63 0 1 0 7.26 0 a3.63 3.63 0 1 0 -7.26 0z" fill="black"></path></mask></defs></svg>