<svg xmlns="http://www.w3.org/2000/svg" version="1.1" xmlns:xlink="http://www.w3.org/1999/xlink" xmlns:svgjs="http://svgjs.com/svgjs" width="1440" height="560" preserveAspectRatio="none" viewBox="0 0 1440 560"><g mask="url(&quot;#SvgjsMask1260&quot;)" fill="none"><g mask="url(&quot;#SvgjsMask1261&quot;)"><path d="M-25 275L25 275L75 275L125 275" stroke="rgba(25, 2, 101, 1)" stroke-width="8.33"></path><path d="M112.5 275 a12.5 12.5 0 1 0 25 0 a12.5 12.5 0 1 0 -25 0z" fill="rgba(25, 2, 101, 1)"></path><path d="M175 275L225 325L275 325M-25 325L25 325L75 325L125 325L175 275L225 275" stroke="rgba(25, 2, 101, 1)" stroke-width="8.33"></path><path d="M212.5 275 a12.5 12.5 0 1 0 25 0 a12.5 12.5 0 1 0 -25 0zM262.5 325 a12.5 12.5 0 1 0 25 0 a12.5 12.5 0 1 0 -25 0z" fill="rgba(25, 2, 101, 1)"></path><path d="M125 225L175 175L225 175M75 225L125 175L175 125L225 125L275 125M25 225L75 175L125 125M-25 225L25 225L75 225L125 225L175 225" stroke="#3a7cc3" stroke-width="8.33"></path><path d="M162.5 225 a12.5 12.5 0 1 0 25 0 a12.5 12.5 0 1 0 -25 0zM212.5 175 a12.5 12.5 0 1 0 25 0 a12.5 12.5 0 1 0 -25 0zM262.5 125 a12.5 12.5 0 1 0 25 0 a12.5 12.5 0 1 0 -25 0zM112.5 125 a12.5 12.5 0 1 0 25 0 a12.5 12.5 0 1 0 -25 0z" fill="#3a7cc3"></path><path d="M225 375L275 375M75 375L125 425L175 425L225 425L275 475M25 375L75 425L125 475M-25 375L25 375L75 375L125 375L175 375L225 375L275 425" stroke="#3a7cc3" stroke-width="8.33"></path><path d="M262.5 425 a12.5 12.5 0 1 0 25 0 a12.5 12.5 0 1 0 -25 0zM262.5 375 a12.5 12.5 0 1 0 25 0 a12.5 12.5 0 1 0 -25 0zM262.5 475 a12.5 12.5 0 1 0 25 0 a12.5 12.5 0 1 0 -25 0zM112.5 475 a12.5 12.5 0 1 0 25 0 a12.5 12.5 0 1 0 -25 0z" fill="#3a7cc3"></path></g></g><defs><mask id="SvgjsMask1260"><rect width="1440" height="560" fill="#ffffff"></rect></mask><mask id="SvgjsMask1261"><rect width="1440" height="560" fill="white"></rect><path d="M118.75 275 a6.25 6.25 0 1 0 12.5 0 a6.25 6.25 0 1 0 -12.5 0z" fill="black"></path><path d="M218.75 275 a6.25 6.25 0 1 0 12.5 0 a6.25 6.25 0 1 0 -12.5 0zM268.75 325 a6.25 6.25 0 1 0 12.5 0 a6.25 6.25 0 1 0 -12.5 0z" fill="black"></path><path d="M168.75 225 a6.25 6.25 0 1 0 12.5 0 a6.25 6.25 0 1 0 -12.5 0zM218.75 175 a6.25 6.25 0 1 0 12.5 0 a6.25 6.25 0 1 0 -12.5 0zM268.75 125 a6.25 6.25 0 1 0 12.5 0 a6.25 6.25 0 1 0 -12.5 0zM118.75 125 a6.25 6.25 0 1 0 12.5 0 a6.25 6.25 0 1 0 -12.5 0z" fill="black"></path><path d="M268.75 425 a6.25 6.25 0 1 0 12.5 0 a6.25 6.25 0 1 0 -12.5 0zM268.75 375 a6.25 6.25 0 1 0 12.5 0 a6.25 6.25 0 1 0 -12.5 0zM268.75 475 a6.25 6.25 0 1 0 12.5 0 a6.25 6.25 0 1 0 -12.5 0zM118.75 475 a6.25 6.25 0 1 0 12.5 0 a6.25 6.25 0 1 0 -12.5 0z" fill="black"></path></mask></defs></svg>